<svg width="20" height="19" viewBox="0 0 20 19" fill="none" xmlns="http://www.w3.org/2000/svg">
<path d="M7.92798 0.988306C8.70067 -0.32966 10.606 -0.329658 11.3787 0.988308L13.1045 3.93205C13.3865 4.41302 13.8564 4.75445 14.401 4.87401L17.734 5.60571C19.2262 5.93331 19.815 7.74537 18.8003 8.88751L16.5339 11.4386C16.1637 11.8554 15.9841 12.4078 16.0387 12.9627L16.3728 16.3586C16.5223 17.8791 14.9809 18.999 13.5811 18.3869L10.4546 17.0198C9.94376 16.7964 9.36288 16.7964 8.85205 17.0198L5.72552 18.3869C4.32572 18.999 2.78429 17.8791 2.93386 16.3586L3.26791 12.9627C3.32249 12.4078 3.14299 11.8554 2.7727 11.4386L0.506342 8.88751C-0.508344 7.74537 0.0804317 5.93331 1.57267 5.60571L4.90565 4.87401C5.45021 4.75445 5.92015 4.41302 6.20213 3.93205L7.92798 0.988306Z" fill="#FFCE22"/>
</svg>
